<svg xmlns="http://www.w3.org/2000/svg" viewBox="0 0 128 128" role="img" aria-labelledby="title desc">
  <title id="title">Brain Outline Icon</title>
  <desc id="desc">Outline brain icon for the mentor panel.</desc>
  <path fill="none" stroke="#000000" stroke-linecap="round" stroke-linejoin="round" stroke-width="2" d="M47.7 22.3c-8.7 0-15.9 6.4-17.1 14.8-7.4 2-12.9 8.8-12.9 16.8 0 3.3.9 6.3 2.5 8.9-4.5 3.4-7.4 8.8-7.4 14.8 0 10.2 8.3 18.5 18.5 18.5h1.6c2.1 7.3 8.8 12.6 16.7 12.6 5.3 0 10-2.3 13.2-6V38.9c0-9.2-6.7-16.6-15.1-16.6Zm1.5 72.4c-3.9 0-7.2-2.8-7.8-6.7-.4-2.3-2.4-4-4.8-4h-5.3c-3.5 0-6.4-2.9-6.4-6.4 0-3.1 2.3-5.8 5.3-6.3 1.9-.3 3.5-1.7 4-3.5.6-1.8.1-3.8-1.3-5.2-1.9-1.9-3-5-3-7.7 0-4.6 3.7-8.4 8.3-8.4h.7c2.9.2 5.3-2.2 5.2-5.1V40c0-3.1 2.5-5.6 5.6-5.6 3 0 5.4 2.4 5.4 5.4v7.1h-3.2c-2.9 0-5.2 2.3-5.2 5.2s2.3 5.2 5.2 5.2h3.2v12.2h-5.5c-2.9 0-5.2 2.3-5.2 5.2s2.3 5.2 5.2 5.2h5.5v6.8c0 4.4-3.6 8-7.9 8Z"/>
  <path fill="none" stroke="#000000" stroke-linecap="round" stroke-linejoin="round" stroke-width="2" d="M80.3 22.3c8.7 0 15.9 6.4 17.1 14.8 7.4 2 12.9 8.8 12.9 16.8 0 3.3-.9 6.3-2.5 8.9 4.5 3.4 7.4 8.8 7.4 14.8 0 10.2-8.3 18.5-18.5 18.5h-1.6c-2.1 7.3-8.8 12.6-16.7 12.6-5.3 0-10-2.3-13.2-6V38.9c0-9.2 6.7-16.6 15.1-16.6Zm-1.5 72.4c3.9 0 7.2-2.8 7.8-6.7.4-2.3 2.4-4 4.8-4h5.3c3.5 0 6.4-2.9 6.4-6.4 0-3.1-2.3-5.8-5.3-6.3-1.9-.3-3.5-1.7-4-3.5-.6-1.8-.1-3.8 1.3-5.2 1.9-1.9 3-5 3-7.7 0-4.6-3.7-8.4-8.3-8.4h-.7c-2.9.2-5.3-2.2-5.2-5.1V40c0-3.1-2.5-5.6-5.6-5.6-3 0-5.4 2.4-5.4 5.4v7.1h3.2c2.9 0 5.2 2.3 5.2 5.2s-2.3 5.2-5.2 5.2h-3.2v12.2h5.5c2.9 0 5.2 2.3 5.2 5.2s-2.3 5.2-5.2 5.2h-5.5v6.8c0 4.4 3.6 8 7.9 8Z"/>
</svg>
