<svg xmlns="http://www.w3.org/2000/svg" viewBox="0 0 128 128" role="img" aria-labelledby="title desc">
  <title id="title">Finance Outline Symbol</title>
  <desc id="desc">Outline wallet symbol for the mentor panel.</desc>
  <path fill="none" stroke="#000000" stroke-linecap="round" stroke-linejoin="round" stroke-width="2" d="M22 36h72c8 0 14 6 14 14v8H83c-13 0-23 10-23 23s10 23 23 23h25v2c0 8-6 14-14 14H22c-8 0-14-6-14-14V50c0-8 6-14 14-14Z"/>
  <path fill="none" stroke="#000000" stroke-linecap="round" stroke-linejoin="round" stroke-width="2" d="M34 36l9-16h47c5 0 8 4 8 8v8"/>
  <path fill="none" stroke="#000000" stroke-linecap="round" stroke-linejoin="round" stroke-width="2" d="M83 64h31c5 0 9 4 9 9v16c0 5-4 9-9 9H83c-9 0-17-8-17-17s8-17 17-17Z"/>
  <circle cx="86" cy="81" r="5" fill="none" stroke="#000000" stroke-width="2"/>
</svg>
