<svg xmlns="http://www.w3.org/2000/svg" viewBox="0 0 128 128" width="128" height="128">
  <title>Mentor Lotus</title>
  <path fill="#6B3FB3" d="M64 15c15 13 23 28 23 43s-8 28-23 38C49 86 41 73 41 58s8-30 23-43z"/>
  <path fill="#6B3FB3" d="M39 41c8 13 10 26 5 38-4 10-14 18-29 22-3-16 0-30 8-41 4-7 10-13 16-19z" opacity=".95"/>
  <path fill="#6B3FB3" d="M89 41c-8 13-10 26-5 38 4 10 14 18 29 22 3-16 0-30-8-41-4-7-10-13-16-19z" opacity=".95"/>
  <path fill="#6B3FB3" d="M20 78c15 2 27 8 35 18-12 8-27 11-44 8 2-10 5-19 9-26zM108 78c-15 2-27 8-35 18 12 8 27 11 44 8-2-10-5-19-9-26z"/>
  <path fill="#FFF7E6" d="M64 38c10 10 15 20 15 30s-5 19-15 27C54 87 49 78 49 68s5-20 15-30z" opacity=".95"/>
</svg>
