<?xml version="1.0"?>
<svg xmlns="http://www.w3.org/2000/svg" viewBox="240 80 170 240">
 <!-- Created with SVG-edit - https://github.com/SVG-Edit/svgedit-->
 <g class="layer">
  <title>Layer 1</title>
  <path d="m317,253.5l-0.5,46.5c1.5,22 14,-27 19,-44c5,-17 -3.5,-43.5 0.5,-53.5c4,-10 14,-24 20,-30.5c6,-6.5 22.5,-23.5 16.5,-28.5c-6,-5 -29.5,40.5 -56.5,40.5c-27,0 -35.5,-30.5 -49,-37.5c-13.5,-7 5,18 10.5,25.5c5.5,7.5 17,19.5 22.5,27c5.5,7.5 -3,40 -1,53.5l11.5,29.25" fill="none" id="svg_3" stroke="#8b63c5" stroke-width="2"/>
  <ellipse cx="317.5" cy="164.5" fill="none" id="svg_4" rx="15" ry="14.5" stroke="#8b63c5" stroke-width="2" transform="matrix(1 0 0 1 -0.5 -1.5)"/>
  <path d="m316.75,89c0,0 -2.75,10 -4.25,13c-1.5,3 -10.75,3 -13,4c-2.25,1 10.75,4.25 12.5,6.5c1.75,2.25 4,13 4.5,12c0.5,-1 2.75,-9.75 4.25,-12c1.5,-2.25 13.75,-5.5 13.25,-6c-0.5,-0.5 -10.5,-1.25 -13,-4.5c-2.5,-3.25 -4.25,-13 -4.25,-13z" fill="none" id="svg_6" stroke="#8b63c5" stroke-width="2"/>
  <path d="m334.25,122.34c0,0 -2.75,10 -4.25,13c-1.5,3 -10.75,3 -13,4c-2.25,1 10.75,4.25 12.5,6.5c1.75,2.25 4,13 4.5,12c0.5,-1 2.75,-9.75 4.25,-12c1.5,-2.25 13.75,-5.5 13.25,-6c-0.5,-0.5 -10.5,-1.25 -13,-4.5c-2.5,-3.25 -4.25,-13 -4.25,-13z" fill="none" id="svg_7" stroke="#8b63c5" stroke-width="2" transform="matrix(0.66689 0 0 0.718422 28.4242 111.956)"/>
  <path d="m385.47,209.95c0,0 -1.97,7.62 -3.05,9.9c-1.08,2.29 -7.71,2.29 -9.32,3.05c-1.61,0.76 7.71,3.24 8.96,4.95c1.25,1.71 2.87,9.9 3.23,9.14c0.36,-0.76 1.97,-7.43 3.05,-9.14c1.08,-1.71 9.86,-4.19 9.5,-4.57c-0.36,-0.38 -7.53,-0.95 -9.32,-3.43c-1.79,-2.48 -3.05,-9.9 -3.05,-9.9z" fill="none" id="svg_8" stroke="#8b63c5" stroke-width="2"/>
  <path d="m458.52,230.22c0,0 -2.75,10 -4.25,13c-1.5,3 -10.75,3 -13,4c-2.25,1 10.75,4.25 12.5,6.5c1.75,2.25 4,13 4.5,12c0.5,-1 2.75,-9.75 4.25,-12c1.5,-2.25 13.75,-5.5 13.25,-6c-0.5,-0.5 -10.5,-1.25 -13,-4.5c-2.5,-3.25 -4.25,-13 -4.25,-13z" fill="none" id="svg_9" stroke="#8b63c5" stroke-width="2" transform="matrix(0.66689 0 0 0.718422 -27.8258 141.706)"/>
 </g>
</svg>
